<?xml version="1.0" encoding="UTF-8" standalone="no"?>
<svg
   xmlns:dc="http://purl.org/dc/elements/1.1/"
   xmlns:cc="http://creativecommons.org/ns#"
   xmlns:rdf="http://www.w3.org/1999/02/22-rdf-syntax-ns#"
   xmlns:svg="http://www.w3.org/2000/svg"
   xmlns="http://www.w3.org/2000/svg"
   version="1.1"
   id="svg2"
   viewBox="0 0 192 192"
   height="192"
   width="192">
  <defs
     id="defs4" />
  <metadata
     id="metadata7">
    <rdf:RDF>
      <cc:Work
         rdf:about="">
        <dc:format>image/svg+xml</dc:format>
        <dc:type
           rdf:resource="http://purl.org/dc/dcmitype/StillImage" />
        <dc:title></dc:title>
      </cc:Work>
    </rdf:RDF>
  </metadata>
  <path
     style="fill:#ffffff;fill-opacity:1;stroke:#e7e748;stroke-width:8;stroke-miterlimit:4;stroke-dasharray:none;stroke-opacity:1"
     d="M 187.99988,96.000053 A 91.999939,91.999947 0 0 1 95.999939,188 91.999939,91.999947 0 0 1 4,96.000053 91.999939,91.999947 0 0 1 95.999939,4.0001068 91.999939,91.999947 0 0 1 187.99988,96.000053 Z"
     id="path4137" />
  <path
     id="path4139"
     style="font-style:normal;font-variant:normal;font-weight:normal;font-stretch:normal;font-size:medium;line-height:125%;font-family:FreeSerif;-inkscape-font-specification:FreeSerif;letter-spacing:0px;word-spacing:0px;fill:#000000;fill-opacity:1;stroke:none;stroke-width:1px;stroke-linecap:butt;stroke-linejoin:miter;stroke-opacity:1"
     d="m 109.89994,12.849633 0,-0.76 -9.4,0 0,0.76 c 3.08,0.24 3.84,0.96 3.84,5.12 l 0,13.48 -15.400001,-19.36 -6.84,0 0,0.76 c 1.72,0 2.28,0.32 3.88,2.2 l 0,17.64 c 0,4.12 -0.56,4.88 -3.88,5.12 l 0,0.76 9.4,0 0,-0.76 c -3.08,-0.16 -3.76,-1.08 -3.76,-5.12 l 0,-15.68 17.680001,22 0.68,0 0,-21.04 c 0,-4.68 1.36,-4.88 3.8,-5.12 z" />
  <path
     d="m 36,96 120,0 M 96,36 96,156"
     style="fill:none;fill-rule:evenodd;stroke:#5771d7;stroke-width:4.14966631;stroke-linecap:butt;stroke-linejoin:miter;stroke-miterlimit:4;stroke-dasharray:none;stroke-opacity:1"
     id="path4145-2" />
</svg>
