<?xml version="1.0" encoding="UTF-8" standalone="no"?>
<svg
   xmlns:dc="http://purl.org/dc/elements/1.1/"
   xmlns:cc="http://creativecommons.org/ns#"
   xmlns:rdf="http://www.w3.org/1999/02/22-rdf-syntax-ns#"
   xmlns:svg="http://www.w3.org/2000/svg"
   xmlns="http://www.w3.org/2000/svg"
   xmlns:sodipodi="http://sodipodi.sourceforge.net/DTD/sodipodi-0.dtd"
   xmlns:inkscape="http://www.inkscape.org/namespaces/inkscape"
   id="レイヤー_2"
   data-name="レイヤー 2"
   viewBox="0 0 2989.7699 2989.77"
   version="1.1"
   inkscape:version="0.91 r13725"
   sodipodi:docname="needle.svg"
   width="2989.77"
   height="2989.77">
  <metadata
     id="metadata32">
    <rdf:RDF>
      <cc:Work
         rdf:about="">
        <dc:format>image/svg+xml</dc:format>
        <dc:type
           rdf:resource="http://purl.org/dc/dcmitype/StillImage" />
        <dc:title>コンパス</dc:title>
      </cc:Work>
    </rdf:RDF>
  </metadata>
  <sodipodi:namedview
     pagecolor="#ffffff"
     bordercolor="#666666"
     borderopacity="1"
     objecttolerance="10"
     gridtolerance="10"
     guidetolerance="10"
     inkscape:pageopacity="0"
     inkscape:pageshadow="2"
     inkscape:window-width="1366"
     inkscape:window-height="723"
     id="namedview30"
     showgrid="false"
     inkscape:zoom="0.091821437"
     inkscape:cx="2093.9279"
     inkscape:cy="1930.9593"
     inkscape:window-x="0"
     inkscape:window-y="24"
     inkscape:window-maximized="1"
     inkscape:current-layer="レイヤー_2" />
  <defs
     id="defs3">
    <style
       id="style5">.cls-1{fill:#07402f;}.cls-2{fill:#fa0;}.cls-3{fill:#0af;}.cls-4{fill:#1a1a1a;}</style>
  </defs>
  <title
     id="title7">コンパス</title>
  <g
     id="海苔巻き"
     transform="translate(931.74501,0)">
    <rect
       x="366.20999"
       y="114.06"
       width="391.56"
       height="1428.4"
       id="rect10" />
    <ellipse
       cx="562"
       cy="114.06"
       rx="195.78"
       ry="114.06"
       id="ellipse12" />
  </g>
  <rect
     class="cls-1"
     x="1312.955"
     y="129.06003"
     width="361.56"
     height="1398.4"
     id="rect14"
     style="fill:#07402f" />
  <path
     class="cls-1"
     d="m 1493.735,213.12 c -49.68,0 -96.17,-11.14 -130.89,-31.37 -32.17,-18.75 -49.89,-42.79 -49.89,-67.69 0,-24.9 17.72,-48.95 49.9,-67.65 34.72,-20.23 81.2,-31.37 130.89,-31.37 49.69,0 96.16,11.1 130.88,31.37 32.17,18.75 49.89,42.79 49.89,67.69 0,24.9 -17.72,48.95 -49.89,67.69 -34.72,20.19 -81.2,31.33 -130.89,31.33 z"
     id="path16"
     inkscape:connector-curvature="0"
     style="fill:#07402f" />
  <g
     id="腕"
     transform="translate(931.74501,0)">
    <path
       d="m 848.29,1499 c 0,0 -2,-46.57 -2,-101 -69,-4 -123,-40.93 -123,-64 0,-37.75 9.5,-40 13,-40 -4.5,0 -23,-3.5 -23,-36 0,-28 10,-42 23,-42 -12.56,0 -31,-22 -31,-44 0,-53.2 36.4,-57 58,-57 -23,0 -50,5.2 -50,-47 0,-36.67 65.4,-66 79,-66 149,0 203,99 244,199 162.47,77 204.65,231 190,396 -23,259 -212.29,526 -595,526 -382.87,0 224,-506 224,-506 0,0 166,-37 115,-191 -23.29,51.15 -122,73 -122,73 z"
       transform="translate(-102.72,-305.59)"
       id="path19"
       inkscape:connector-curvature="0" />
    <path
       id="腕-2"
       data-name="腕"
       class="cls-2"
       d="m 740.92,1206.5 c -2.52,-0.4 -20.62,-20.31 -20.62,-34.5 0,-34.48 16.5,-50 47,-50 30.5,0 51,4.43 51,-5 0,-9 -47.1,-10 -56,-10 -8.9,0 -24.44,-7.86 -27.2,-10.32 -4.38,-3.9 -6.8,-14.08 -6.8,-28.68 0,-9.91 9.71,-22.14 26.64,-33.55 16.93,-11.41 33.62,-17.09 37.52,-17.45 63.37,0 113,18.88 151.73,57.61 35.86,35.86 58.79,84.67 78.23,132.08 l 2.2,5.37 5.25,2.49 c 72.69,34.47 124.52,87.4 154,157.3 25.95,61.47 35.19,136.77 27.46,223.81"
       transform="translate(-102.72,-305.59)"
       inkscape:connector-curvature="0"
       style="fill:#ffaa00" />
    <path
       id="シャツ"
       class="cls-3"
       d="m 1183.23,1731.85 c -27.07,81.59 -71.44,155.29 -130.22,214.73 -49.79,50.34 -109.06,89.62 -176.16,116.75 C 803.54,2093 720.92,2108 631.29,2108 c -62.51,0 -99.12,-13.57 -108.82,-40.34 -16.63,-45.92 37.6,-138.34 152.72,-260.26 82.58,-87.45 171,-163 187.1,-176.69 24.93,-16.31 39.12,-8.88 77.54,-38.55 110.53,32.4 243.4,139.69 243.4,139.69 z"
       transform="translate(-102.72,-305.59)"
       inkscape:connector-curvature="0"
       style="fill:#00aaff" />
  </g>
  <g
     id="腕-3"
     data-name="腕"
     transform="translate(931.74501,0)">
    <path
       d="m 483.43,1499 c 0,0 2,-46.57 2,-101 69,-4 123,-40.93 123,-64 0,-37.75 -9.5,-40 -13,-40 4.5,0 23,-3.5 23,-36 0,-28 -10,-42 -23,-42 12.56,0 31,-22 31,-44 0,-53.2 -36.4,-57 -58,-57 23,0 50,5.2 50,-47 0,-36.67 -65.4,-66 -79,-66 -149,0 -203,99 -244,199 -162.47,77 -204.65,231 -190,396 23,259 212.29,526 595,526 382.87,0 -224,-506 -224,-506 0,0 -166,-37 -115,-191 23.25,51.15 122,73 122,73 z"
       transform="translate(-102.72,-305.59)"
       id="path24"
       inkscape:connector-curvature="0" />
    <path
       id="腕-4"
       data-name="腕"
       class="cls-2"
       d="m 590.8,1206.5 c 2.52,-0.4 20.63,-20.31 20.63,-34.5 0,-34.48 -16.5,-50 -47,-50 -30.5,0 -51,4.43 -51,-5 0,-9 47.1,-10 56,-10 8.9,0 24.44,-7.86 27.2,-10.32 4.38,-3.9 6.8,-14.08 6.8,-28.68 0,-9.91 -9.71,-22.14 -26.64,-33.55 -16.93,-11.41 -33.62,-17.09 -37.52,-17.45 -63.37,0 -113,18.88 -151.73,57.61 -35.86,35.86 -58.79,84.67 -78.23,132.08 l -2.2,5.37 -5.25,2.49 c -72.69,34.47 -124.52,87.4 -154,157.3 -25.95,61.47 -35.19,136.77 -27.46,223.81 a 605.32,605.32 0 0 0 17,98.69 c 55.45,-47.3 130.45,-101.3 225.52,-133"
       transform="translate(-102.72,-305.59)"
       inkscape:connector-curvature="0"
       style="fill:#ffaa00" />
    <path
       id="シャツ-2"
       data-name="シャツ"
       class="cls-3"
       d="m 391.88,1592.16 c 38.41,29.67 52.61,22.24 77.54,38.55 16.15,13.65 104.53,89.24 187.1,176.69 115.12,121.91 169.35,214.34 152.72,260.26 -9.7,26.77 -46.31,40.34 -108.82,40.34 -89.63,0 -172.25,-15 -245.57,-44.67 -67.1,-27.13 -126.37,-66.41 -176.16,-116.75 -58.78,-59.43 -103.14,-133.13 -130.22,-214.73 0.01,0 132.89,-107.29 243.41,-139.69 z"
       transform="translate(-102.72,-305.59)"
       inkscape:connector-curvature="0"
       style="fill:#00aaff" />
  </g>
  <ellipse
     class="cls-4"
     cx="1493.745"
     cy="1494.0801"
     rx="355.97"
     ry="321.72"
     id="ellipse28"
     style="fill:#1a1a1a" />
</svg>
