<svg id="レイヤー_2" data-name="レイヤー 2" xmlns="http://www.w3.org/2000/svg" viewBox="0 0 2989.77 2989.77"><title>コンパス_アウトライン化</title><g id="海苔巻き"><rect x="1298.82" y="115.06" width="391.56" height="1428.4"/><ellipse cx="1494.6" cy="115.06" rx="195.78" ry="114.06"/></g><rect x="1313.82" y="130.06" width="361.56" height="1398.4" style="fill:#07402f"/><path d="M1494.6,214.13c-49.68,0-96.17-11.14-130.89-31.37-32.17-18.75-49.89-42.79-49.89-67.69s17.72-48.95,49.89-67.69C1398.44,27.14,1444.92,16,1494.6,16s96.17,11.14,130.89,31.37c32.17,18.75,49.89,42.79,49.89,67.69s-17.72,48.95-49.89,67.69C1590.77,203,1544.29,214.13,1494.6,214.13Z" style="fill:#07402f"/><path d="M1677.89,1139.89s-1.7,0-1.7-54.47c-69-4-117.68-41.55-123-64-24.53-103.62-21.59-186.68-10-266,5.3-36.28,65.4-66,79-66,149,0,203,99,244,199,162.47,77,204.65,231,190,396-23,259-212.29,526-595,526-382.87,0,224-506,224-506s166-37,115-191C1776.93,1164.57,1677.89,1139.89,1677.89,1139.89Z"/><path id="腕" d="M1558.18,755.41c1.23-9.84,9.71-22.14,26.64-33.55s33.62-17.09,37.52-17.45c63.37,0,113,18.88,151.73,57.61,35.86,35.86,58.79,84.67,78.23,132.08l2.2,5.37,5.25,2.49c72.69,34.47,124.52,87.4,154,157.3,25.95,61.47,35.19,136.77,27.46,223.81a605.32,605.32,0,0,1-17,98.69c-55.45-47.3-130.45-101.3-225.52-133a109.46,109.46,0,0,0,9-12.64c20.51-36.17,22.79-79,6.77-127.4l-12-36.37-15.85,34.87c-13.54,29.79-61.64,22.68-93.64,20.68,7.26-28.11,6.18-56.79-1.7-56.63a89.09,89.09,0,0,1-14.13-.82c-16.84-1-49.71-5.24-80.62-22.79-21.44-12.18-27.7-23.55-28.25-26.23C1545.91,911.76,1544.59,863.69,1558.18,755.41Z" style="fill:#fa0"/><path id="シャツ" d="M2013.12,1419.27c-27.07,81.59-71.44,155.29-130.22,214.73-49.79,50.34-109.06,89.62-176.16,116.75-73.32,29.64-155.94,44.67-245.57,44.67-62.51,0-99.12-13.57-108.82-40.34-16.63-45.92,37.6-138.34,152.72-260.26,82.58-87.45,171-163,187.1-176.69,24.93-16.31,39.12-8.88,77.54-38.55C1880.25,1312,2013.12,1419.27,2013.12,1419.27Z" style="fill:#0af"/><path d="M1633.37,808.74l-84.25-4.2,1.68-16.11s73.25,5.4,83.23,7.21S1647.34,809.44,1633.37,808.74Z"/><path d="M1632,890.1l-84.36.09,0.86-16.17s73.43,1.67,83.49,3S1645.95,890.08,1632,890.1Z"/><path d="M1637.94,989.9l-84.16-5.69,2-16.08s73.14,6.7,83.09,8.68S1651.89,990.84,1637.94,989.9Z"/><path d="M1317.52,1139.89s1.7,0,1.7-54.47c69-4,117.68-41.55,123-64,24.53-103.62,21.59-186.68,10-266-5.3-36.28-65.4-66-79-66-149,0-203,99-244,199-162.47,77-204.65,231-190,396,23,259,212.29,526,595,526,382.87,0-224-506-224-506s-166-37-115-191C1218.48,1164.57,1317.52,1139.89,1317.52,1139.89Z"/><path id="腕-2" data-name="腕" d="M1427.23,1021.41c-0.55,2.69-6.81,14.06-28.25,26.23-30.91,17.56-63.78,21.82-80.62,22.79a89.09,89.09,0,0,1-14.13.82c-7.89-.16-9,28.52-1.7,56.63-32,2-80.1,9.11-93.64-20.68L1193,1072.33l-12,36.37c-16,48.36-13.74,91.23,6.77,127.4a109.46,109.46,0,0,0,9,12.64c-95.07,31.74-170.07,85.74-225.52,133a605.32,605.32,0,0,1-17-98.69c-7.73-87,1.51-162.35,27.46-223.81,29.51-69.91,81.33-122.83,154-157.3l5.25-2.49,2.2-5.37c19.44-47.41,42.37-96.22,78.23-132.08,38.73-38.73,88.36-57.57,151.73-57.61,3.91,0.36,20.51,6,37.52,17.45s25.4,23.71,26.64,33.55C1450.81,863.69,1449.5,911.76,1427.23,1021.41Z" style="fill:#fa0"/><path id="シャツ-2" data-name="シャツ" d="M1225.69,1279.57c38.41,29.67,52.61,22.24,77.54,38.55,16.15,13.65,104.53,89.24,187.1,176.69,115.12,121.91,169.35,214.34,152.72,260.26-9.7,26.77-46.31,40.34-108.82,40.34-89.63,0-172.25-15-245.57-44.67-67.1-27.13-126.37-66.41-176.16-116.75-58.78-59.43-103.14-133.13-130.22-214.73C982.28,1419.27,1115.16,1312,1225.69,1279.57Z" style="fill:#0af"/><path d="M1362,808.74l84.25-4.2-1.68-16.11s-73.25,5.4-83.23,7.21S1348.07,809.44,1362,808.74Z"/><path d="M1363.45,890.1l84.36,0.09L1446.95,874s-73.43,1.67-83.49,3S1349.46,890.08,1363.45,890.1Z"/><path d="M1357.47,989.9l84.16-5.69-2-16.08s-73.14,6.7-83.09,8.68S1343.52,990.84,1357.47,989.9Z"/><ellipse cx="1494.6" cy="1495.08" rx="355.97" ry="321.72" style="fill:#1a1a1a"/></svg>