<?xml version="1.0" encoding="UTF-8" standalone="no"?>
<svg
   xmlns:dc="http://purl.org/dc/elements/1.1/"
   xmlns:cc="http://creativecommons.org/ns#"
   xmlns:rdf="http://www.w3.org/1999/02/22-rdf-syntax-ns#"
   xmlns:svg="http://www.w3.org/2000/svg"
   xmlns="http://www.w3.org/2000/svg"
   id="svg2"
   viewBox="0 0 192 192"
   height="192"
   width="192"
   version="1.1">
  <defs
     id="defs10" />
  <metadata
     id="metadata7">
    <rdf:RDF>
      <cc:Work
         rdf:about="">
        <dc:format>image/svg+xml</dc:format>
        <dc:type
           rdf:resource="http://purl.org/dc/dcmitype/StillImage" />
        <dc:title></dc:title>
      </cc:Work>
    </rdf:RDF>
  </metadata>
  <path
     style="fill:#808080;fill-opacity:1;stroke:none"
     id="path4137"
     d="M 192.00001,95.999987 C 192.00001,149.01933 149.01934,192 96.000004,192 42.980666,192 0,149.01933 0,95.999987 0,42.980645 42.980666,-2.4556443e-5 96.000004,-2.4556443e-5 149.01934,-2.4556443e-5 192.00001,42.980645 192.00001,95.999987 Z" />
  <path
     style="fill:#ffffff;fill-opacity:1;stroke:none"
     id="path4137-4"
     d="m 183.99999,96 c 0,48.60106 -39.39894,88 -87.99999,88 C 47.398947,184 8.0000077,144.60106 8.0000077,96 8.0000077,47.398942 47.398947,8.0000004 96,8.0000004 c 48.60105,0 87.99999,39.3989416 87.99999,87.9999996 z" />
  <path
     style="font-style:normal;font-variant:normal;font-weight:normal;font-stretch:normal;font-size:36px;line-height:125%;font-family:'Courier New';-inkscape-font-specification:'Courier New';letter-spacing:0px;word-spacing:0px;fill:#000000;fill-opacity:1;stroke:none"
     id="path3775"
     d="m 103.49707,32.569633 -1.89844,0 -10.880857,-18.404296 0,16.927734 2.72461,0 c 0.363273,1e-6 0.621085,0.07031 0.773437,0.210937 0.152335,0.128908 0.228507,0.304689 0.228516,0.527344 -9e-6,0.210938 -0.07618,0.386719 -0.228516,0.527344 -0.152352,0.140625 -0.410164,0.210937 -0.773437,0.210937 l -5.431641,0 c -0.363283,0 -0.621095,-0.07031 -0.773437,-0.210937 -0.152346,-0.140625 -0.228517,-0.316406 -0.228516,-0.527344 -10e-7,-0.222655 0.07617,-0.398436 0.228516,-0.527344 0.152342,-0.140623 0.410154,-0.210936 0.773437,-0.210937 l 1.230469,0 0,-17.613281 -1.986328,0 c -0.351564,1.9e-5 -0.603517,-0.06443 -0.75586,-0.19336 -0.152344,-0.140605 -0.228516,-0.322246 -0.228515,-0.544922 -1e-6,-0.222636 0.07617,-0.398417 0.228515,-0.527343 0.152343,-0.140605 0.404296,-0.210917 0.75586,-0.210938 l 3.867187,0 10.89844,18.439453 0,-16.96289 -2.724612,0 c -0.351576,1.9e-5 -0.603528,-0.06443 -0.755859,-0.19336 -0.152357,-0.140605 -0.228528,-0.322246 -0.228516,-0.544922 -1.2e-5,-0.222636 0.0703,-0.398417 0.210938,-0.527343 0.15233,-0.140605 0.410143,-0.210917 0.773437,-0.210938 l 5.449222,0 c 0.35154,2.1e-5 0.60349,0.07033 0.75586,0.210938 0.15232,0.128926 0.22849,0.304707 0.22851,0.527343 -2e-5,0.222676 -0.0762,0.404317 -0.22851,0.544922 -0.15237,0.128926 -0.40432,0.193379 -0.75586,0.19336 l -1.24805,0 0,19.089843" />
  <path
     style="color:#000000;font-style:normal;font-variant:normal;font-weight:normal;font-stretch:normal;font-size:medium;line-height:normal;font-family:Sans;-inkscape-font-specification:Sans;text-indent:0;text-align:start;text-decoration:none;text-decoration-line:none;letter-spacing:normal;word-spacing:normal;text-transform:none;direction:ltr;block-progression:tb;writing-mode:lr-tb;baseline-shift:baseline;text-anchor:start;display:inline;overflow:visible;visibility:visible;fill:#a0a0a0;fill-opacity:1;stroke:none;marker:none;enable-background:accumulate"
     id="path4145"
     d="M 95.75,33.90625 A 2.0752075,2.0752075 0 0 0 93.9375,36 l 0,57.9375 -57.9375,0 a 2.0750406,2.0750406 0 0 0 -0.21875,0 A 2.0750406,2.0750406 0 0 0 36,98.0625 l 57.9375,0 0,57.9375 a 2.0752075,2.0752075 0 1 0 4.125,0 l 0,-57.9375 57.9375,0 a 2.0750406,2.0750406 0 1 0 0,-4.125 l -57.9375,0 0,-57.9375 A 2.0752075,2.0752075 0 0 0 95.75,33.90625 Z" />
</svg>
