<?xml version="1.0" encoding="UTF-8" standalone="no"?>
<svg
   xmlns:dc="http://purl.org/dc/elements/1.1/"
   xmlns:cc="http://creativecommons.org/ns#"
   xmlns:rdf="http://www.w3.org/1999/02/22-rdf-syntax-ns#"
   xmlns:svg="http://www.w3.org/2000/svg"
   xmlns="http://www.w3.org/2000/svg"
   version="1.1"
   viewBox="0 0 2989.77 2989.77"
   data-name="レイヤー 2"
   id="レイヤー_2">
  <metadata
     id="metadata40">
    <rdf:RDF>
      <cc:Work
         rdf:about="">
        <dc:format>image/svg+xml</dc:format>
        <dc:type
           rdf:resource="http://purl.org/dc/dcmitype/StillImage" />
        <dc:title>コンパス_アウトライン化</dc:title>
      </cc:Work>
    </rdf:RDF>
  </metadata>
  <defs
     id="defs38" />
  <title
     id="title3">コンパス_アウトライン化</title>
  <g
     id="海苔巻き">
    <path
       id="rect6"
       d="m 1298.8199,115.06 391.56,0 0,1428.4 -391.56,0 z" />
    <path
       id="ellipse8"
       d="M 1690.38,115.06 A 195.78,114.06 0 0 1 1494.6,229.12 195.78,114.06 0 0 1 1298.82,115.06 195.78,114.06 0 0 1 1494.6,1 195.78,114.06 0 0 1 1690.38,115.06 Z" />
  </g>
  <path
     id="rect10"
     d="m 1313.8199,130.06 361.56,0 0,1398.4 -361.56,0 z"
     style="fill:#07402f" />
  <path
     id="path12"
     style="fill:#07402f"
     d="m 1494.6,214.13 c -49.68,0 -96.17,-11.14 -130.89,-31.37 -32.17,-18.75 -49.89,-42.79 -49.89,-67.69 0,-24.9 17.72,-48.95 49.89,-67.69 C 1398.44,27.14 1444.92,16 1494.6,16 c 49.68,0 96.17,11.14 130.89,31.37 32.17,18.75 49.89,42.79 49.89,67.69 0,24.9 -17.72,48.95 -49.89,67.69 -34.72,20.25 -81.2,31.38 -130.89,31.38 z" />
  <path
     id="path14"
     d="m 1677.89,1139.89 c 0,0 -1.7,0 -1.7,-54.47 -69,-4 -117.68,-41.55 -123,-64 -24.53,-103.62 -21.59,-186.68 -10,-266 5.3,-36.28 65.4,-66 79,-66 149,0 203,99 244,199 162.47,77 204.65,231 190,396 -23,259 -212.29,526 -595,526 -382.87,0 224,-506 224,-506 0,0 166,-37 115,-191 -23.26,51.15 -122.3,26.47 -122.3,26.47 z" />
  <path
     style="fill:#ffaa00"
     d="m 1558.18,755.41 c 1.23,-9.84 9.71,-22.14 26.64,-33.55 16.93,-11.41 33.62,-17.09 37.52,-17.45 63.37,0 113,18.88 151.73,57.61 35.86,35.86 58.79,84.67 78.23,132.08 l 2.2,5.37 5.25,2.49 c 72.69,34.47 124.52,87.4 154,157.3 25.95,61.47 35.19,136.77 27.46,223.81"
     id="腕" />
  <path
     style="fill:#00aaff"
     d="m 2013.12,1419.27 c -27.07,81.59 -71.44,155.29 -130.22,214.73 -49.79,50.34 -109.06,89.62 -176.16,116.75 -73.32,29.64 -155.94,44.67 -245.57,44.67 -62.51,0 -99.12,-13.57 -108.82,-40.34 -16.63,-45.92 37.6,-138.34 152.72,-260.26 82.58,-87.45 171,-163 187.1,-176.69 24.93,-16.31 39.12,-8.88 77.54,-38.55 110.54,32.42 243.41,139.69 243.41,139.69 z"
     id="シャツ" />
  <path
     id="path18"
     d="m 1633.37,808.74 -84.25,-4.2 1.68,-16.11 c 0,0 73.25,5.4 83.23,7.21 9.98,1.81 13.31,13.8 -0.66,13.1 z" />
  <path
     id="path20"
     d="m 1632,890.1 -84.36,0.09 0.86,-16.17 c 0,0 73.43,1.67 83.49,3 10.06,1.33 13.96,13.06 0.01,13.08 z" />
  <path
     id="path22"
     d="m 1637.94,989.9 -84.16,-5.69 2,-16.08 c 0,0 73.14,6.7 83.09,8.68 9.95,1.98 13.02,14.03 -0.93,13.09 z" />
  <path
     id="path24"
     d="m 1317.52,1139.89 c 0,0 1.7,0 1.7,-54.47 69,-4 117.68,-41.55 123,-64 24.53,-103.62 21.59,-186.68 10,-266 -5.3,-36.28 -65.4,-66 -79,-66 -149,0 -203,99 -244,199 -162.47,77 -204.65,231 -190,396 23,259 212.29,526 595,526 382.87,0 -224,-506 -224,-506 0,0 -166,-37 -115,-191 23.26,51.15 122.3,26.47 122.3,26.47 z" />
  <path
     style="fill:#ffaa00"
     d="m 1427.23,1021.41 c -0.55,2.69 -6.81,14.06 -28.25,26.23 -30.91,17.56 -63.78,21.82 -80.62,22.79"
     data-name="腕"
     id="腕-2" />
  <path
     style="fill:#00aaff"
     d="m 1225.69,1279.57 c 38.41,29.67 52.61,22.24 77.54,38.55 16.15,13.65 104.53,89.24 187.1,176.69 115.12,121.91 169.35,214.34 152.72,260.26 -9.7,26.77 -46.31,40.34 -108.82,40.34 -89.63,0 -172.25,-15 -245.57,-44.67 -67.1,-27.13 -126.37,-66.41 -176.16,-116.75 -58.78,-59.43 -103.14,-133.13 -130.22,-214.73 0,0.01 132.88,-107.26 243.41,-139.69 z"
     data-name="シャツ"
     id="シャツ-2" />
  <path
     id="path28"
     d="m 1362,808.74 84.25,-4.2 -1.68,-16.11 c 0,0 -73.25,5.4 -83.23,7.21 -9.98,1.81 -13.27,13.8 0.66,13.1 z" />
  <path
     id="path30"
     d="m 1363.45,890.1 84.36,0.09 -0.86,-16.19 c 0,0 -73.43,1.67 -83.49,3 -10.06,1.33 -14,13.08 -0.01,13.1 z" />
  <path
     id="path32"
     d="m 1357.47,989.9 84.16,-5.69 -2,-16.08 c 0,0 -73.14,6.7 -83.09,8.68 -9.95,1.98 -13.02,14.03 0.93,13.09 z" />
  <path
     id="ellipse34"
     d="m 1850.57,1495.08 a 355.97,321.72 0 0 1 -355.97,321.72 355.97,321.72 0 0 1 -355.97,-321.72 355.97,321.72 0 0 1 355.97,-321.72 355.97,321.72 0 0 1 355.97,321.72 z"
     style="fill:#1a1a1a" />
</svg>
