<?xml version="1.0" encoding="UTF-8" standalone="no"?>
<svg
   xmlns:dc="http://purl.org/dc/elements/1.1/"
   xmlns:cc="http://creativecommons.org/ns#"
   xmlns:rdf="http://www.w3.org/1999/02/22-rdf-syntax-ns#"
   xmlns:svg="http://www.w3.org/2000/svg"
   xmlns="http://www.w3.org/2000/svg"
   version="1.1"
   id="svg2"
   viewBox="0 0 48 48"
   height="48"
   width="48">
  <defs
     id="defs4" />
  <metadata
     id="metadata7">
    <rdf:RDF>
      <cc:Work
         rdf:about="">
        <dc:format>image/svg+xml</dc:format>
        <dc:type
           rdf:resource="http://purl.org/dc/dcmitype/StillImage" />
        <dc:title></dc:title>
      </cc:Work>
    </rdf:RDF>
  </metadata>
  <g
     transform="translate(0,-1004.3622)"
     id="layer1">
    <ellipse
       ry="12"
       rx="6"
       cy="1040.3622"
       cx="42"
       id="path4136-1"
       style="fill:#000000;fill-opacity:1;stroke:none;stroke-width:4;stroke-miterlimit:4;stroke-dasharray:none;stroke-opacity:1" />
    <rect
       y="1028.3622"
       x="6"
       height="24"
       width="36"
       id="rect4153"
       style="fill:#000000;fill-opacity:1;stroke:none;stroke-width:4;stroke-miterlimit:4;stroke-dasharray:none;stroke-opacity:1" />
    <ellipse
       ry="12"
       rx="6"
       cy="1040.3622"
       cx="6"
       id="path4136"
       style="fill:#000000;fill-opacity:1;stroke:none;stroke-width:4;stroke-miterlimit:4;stroke-dasharray:none;stroke-opacity:1" />
    <ellipse
       ry="10"
       rx="4"
       cy="1040.3622"
       cx="6"
       id="path4155"
       style="fill:#ffffff;fill-opacity:1;stroke:none;stroke-width:4;stroke-miterlimit:4;stroke-dasharray:none;stroke-opacity:1" />
    <path
       d="m 8,1040.3622 a 2,5 0 0 1 -1.9999999,5 l -1e-7,-5 z"
       id="path4157"
       style="fill:#f77b71;fill-opacity:1;stroke:none;stroke-width:4;stroke-miterlimit:4;stroke-dasharray:none;stroke-opacity:1" />
    <path
       d="M 6.0000001,1045.3622 A 2,5 0 0 1 4.5857864,1043.8977 2,5 0 0 1 4,1040.3622 l 2,0 z"
       id="path4159"
       style="fill:#7e9d36;fill-opacity:1;stroke:none;stroke-width:4;stroke-miterlimit:4;stroke-dasharray:none;stroke-opacity:1" />
    <path
       d="m 4,1040.3622 a 2,5 0 0 1 2,-5 l 0,5 z"
       id="path4161"
       style="fill:#f6b205;fill-opacity:1;stroke:none;stroke-width:4;stroke-miterlimit:4;stroke-dasharray:none;stroke-opacity:1" />
    <path
       d="m 6,1035.3622 a 2,5 0 0 1 2,5 l -2,0 z"
       id="path4163"
       style="fill:#c6620c;fill-opacity:1;stroke:none;stroke-width:4;stroke-miterlimit:4;stroke-dasharray:none;stroke-opacity:1" />
  </g>
</svg>
