<?xml version="1.0" encoding="UTF-8" standalone="no"?>
<!-- Created with Inkscape (http://www.inkscape.org/) -->

<svg
   xmlns:dc="http://purl.org/dc/elements/1.1/"
   xmlns:cc="http://creativecommons.org/ns#"
   xmlns:rdf="http://www.w3.org/1999/02/22-rdf-syntax-ns#"
   xmlns:svg="http://www.w3.org/2000/svg"
   xmlns="http://www.w3.org/2000/svg"
   version="1.1"
   width="48"
   height="48"
   id="svg2">
  <defs
     id="defs4" />
  <metadata
     id="metadata7">
    <rdf:RDF>
      <cc:Work
         rdf:about="">
        <dc:format>image/svg+xml</dc:format>
        <dc:type
           rdf:resource="http://purl.org/dc/dcmitype/StillImage" />
        <dc:title></dc:title>
      </cc:Work>
    </rdf:RDF>
  </metadata>
  <path
     d="m 48,24 a 6,12 0 0 1 -12,0 6,12 0 1 1 12,0 z"
     id="path3755-6"
     style="fill:#000000;fill-opacity:1;stroke:none" />
  <path
     d="m 6,12 36,0 0,24 -36,0 z"
     id="rect3775"
     style="fill:#000000;fill-opacity:1;stroke:none" />
  <path
     d="M 12,24.003514 A 6,12 0 0 1 2.7501618e-7,24.003514 6,12 0 1 1 12,24.003514 z"
     id="path3755"
     style="fill:#000000;fill-opacity:1;stroke:none" />
  <path
     d="m -4.6779661,25.525423 a 4.6779661,9.6610174 0 1 1 -9.3559319,0 4.6779661,9.6610174 0 1 1 9.3559319,0 z"
     transform="matrix(0.85507246,0,0,1.0350877,14,-2.0481695)"
     id="path3131"
     style="fill:#ffffff;fill-opacity:1;stroke:none" />
  <path
     d="m 4.7503128,19.670733 a 2.4997913,4.9995825 0 0 1 3.749687,4.329766 l -2.4997914,0 z"
     id="path3795"
     style="fill:#f17641;fill-opacity:1;stroke:none" />
  <path
     d="m 4.7503128,28.330264 a 2.4997913,4.9995825 0 0 1 0,-8.659531 l 1.2498956,4.329766 z"
     id="path3795-4"
     style="fill:#eeae05;fill-opacity:1;stroke:none" />
  <path
     d="m 8.4999998,24.000499 a 2.4997913,4.9995825 0 0 1 -3.749687,4.329765 l 1.2498956,-4.329765 z"
     id="path3795-7"
     style="fill:#9daa40;fill-opacity:1;stroke:none" />
</svg>
