<?xml version="1.0" encoding="UTF-8" standalone="no"?>
<svg
   xmlns:dc="http://purl.org/dc/elements/1.1/"
   xmlns:cc="http://creativecommons.org/ns#"
   xmlns:rdf="http://www.w3.org/1999/02/22-rdf-syntax-ns#"
   xmlns:svg="http://www.w3.org/2000/svg"
   xmlns="http://www.w3.org/2000/svg"
   version="1.1"
   id="svg2"
   viewBox="0 0 48 48"
   height="48"
   width="48">
  <defs
     id="defs4" />
  <metadata
     id="metadata7">
    <rdf:RDF>
      <cc:Work
         rdf:about="">
        <dc:format>image/svg+xml</dc:format>
        <dc:type
           rdf:resource="http://purl.org/dc/dcmitype/StillImage" />
        <dc:title></dc:title>
      </cc:Work>
    </rdf:RDF>
  </metadata>
  <g
     transform="translate(0,-1004.3622)"
     id="layer1">
    <g
       transform="matrix(0.8660254,-0.5,0.5,0.8660254,-516.96571,139.38211)"
       id="g4192">
      <path
         style="fill:#000000;fill-opacity:1;stroke:none;stroke-width:4;stroke-miterlimit:4;stroke-dasharray:none;stroke-opacity:1"
         d="m 48,1040.3622 a 6,12 0 0 1 -6,12 6,12 0 0 1 -6,-12 6,12 0 0 1 6,-12 6,12 0 0 1 6,12 z"
         id="path4136-1" />
      <path
         style="fill:#000000;fill-opacity:1;stroke:none;stroke-width:4;stroke-miterlimit:4;stroke-dasharray:none;stroke-opacity:1"
         d="m 6,1028.3622 36,0 0,24 -36,0 z"
         id="rect4153" />
      <path
         style="fill:#000000;fill-opacity:1;stroke:none;stroke-width:4;stroke-miterlimit:4;stroke-dasharray:none;stroke-opacity:1"
         d="m 12,1040.3622 a 6,12 0 0 1 -6,12 6,12 0 0 1 -6,-12 6,12 0 0 1 6,-12 6,12 0 0 1 6,12 z"
         id="path4136" />
      <path
         style="fill:#ffffff;fill-opacity:1;stroke:none;stroke-width:4;stroke-miterlimit:4;stroke-dasharray:none;stroke-opacity:1"
         d="m 10,1040.3622 a 4,10 0 0 1 -4,10 4,10 0 0 1 -4,-10 4,10 0 0 1 4,-10 4,10 0 0 1 4,10 z"
         id="path4155" />
      <path
         style="fill:#f77b71;fill-opacity:1;stroke:none;stroke-width:4;stroke-miterlimit:4;stroke-dasharray:none;stroke-opacity:1"
         d="m 8,1040.3622 a 2,5 0 0 1 -1.9999999,5 l -1e-7,-5 z"
         id="path4157" />
      <path
         style="fill:#7e9d36;fill-opacity:1;stroke:none;stroke-width:4;stroke-miterlimit:4;stroke-dasharray:none;stroke-opacity:1"
         d="M 6.0000001,1045.3622 A 2,5 0 0 1 4.5857864,1043.8977 2,5 0 0 1 4,1040.3622 l 2,0 z"
         id="path4159" />
      <path
         style="fill:#f6b205;fill-opacity:1;stroke:none;stroke-width:4;stroke-miterlimit:4;stroke-dasharray:none;stroke-opacity:1"
         d="m 4,1040.3622 a 2,5 0 0 1 2,-5 l 0,5 z"
         id="path4161" />
      <path
         style="fill:#c6620c;fill-opacity:1;stroke:none;stroke-width:4;stroke-miterlimit:4;stroke-dasharray:none;stroke-opacity:1"
         d="m 6,1035.3622 a 2,5 0 0 1 2,5 l -2,0 z"
         id="path4163" />
    </g>
  </g>
</svg>
