<?xml version="1.0" encoding="UTF-8" standalone="no"?>
<svg
   xmlns:dc="http://purl.org/dc/elements/1.1/"
   xmlns:cc="http://creativecommons.org/ns#"
   xmlns:rdf="http://www.w3.org/1999/02/22-rdf-syntax-ns#"
   xmlns:svg="http://www.w3.org/2000/svg"
   xmlns="http://www.w3.org/2000/svg"
   width="48"
   height="48"
   viewBox="0 0 48 48"
   id="svg2"
   version="1.1">
  <defs
     id="defs12" />
  <metadata
     id="metadata7">
    <rdf:RDF>
      <cc:Work
         rdf:about="">
        <dc:format>image/svg+xml</dc:format>
        <dc:type
           rdf:resource="http://purl.org/dc/dcmitype/StillImage" />
        <dc:title></dc:title>
      </cc:Work>
    </rdf:RDF>
  </metadata>
  <path
     id="path4136-1-3"
     d="m 35.621312,3.7859436 a 12.241978,6.1209891 60 0 0 -1.839086,0.430382 L 1.9757956,22.579293 A 12.241978,6.1209891 60 0 0 2.7967106,36.24193 12.241978,6.1209891 60 0 0 14.217774,43.783579 L 46.024204,25.420611 A 12.241978,6.1209891 60 0 0 45.20329,11.757974 12.241978,6.1209891 60 0 0 35.621312,3.7859436 Z"
     style="fill:#ffffff;fill-opacity:1;stroke:none" />
  <path
     id="path4136-1"
     d="m 35.392578,4.1855469 a 12,6 60 0 0 -1.804687,0.421875 L 2.4121094,22.607422 A 12,6 60 0 0 3.2148438,36 12,6 60 0 0 14.412109,43.392578 l 31.175782,-18 A 12,6 60 0 0 44.785156,12 12,6 60 0 0 35.392578,4.1855469 Z"
     style="fill:#000000;fill-opacity:1;stroke:none" />
  <path
     id="path4155"
     d="M 11.875644,31 A 10,4 60 0 1 13.411542,41.660254 10,4 60 0 1 4.9474408,35 10,4 60 0 1 3.4115424,24.339746 10,4 60 0 1 11.875644,31 Z"
     style="fill:#ffffff;fill-opacity:1;stroke:none" />
  <path
     id="path4157"
     d="m 10.143593,32 a 5,2 60 0 1 0.767949,5.330127 L 8.4115424,33 Z"
     style="fill:#f77b71;fill-opacity:1;stroke:none" />
  <path
     id="path4159"
     d="M 10.911542,37.330127 A 5,2 60 0 1 8.9545475,36.76894 5,2 60 0 1 6.6794916,34 l 1.7320508,-1 z"
     style="fill:#7e9d36;fill-opacity:1;stroke:none" />
  <path
     id="path4161"
     d="M 6.6794916,34 A 5,2 60 0 1 5.9115424,28.669873 l 2.5,4.330127 z"
     style="fill:#f6b205;fill-opacity:1;stroke:none" />
  <path
     id="path4163"
     d="M 5.9115424,28.669873 A 5,2 60 0 1 10.143593,32 l -1.7320506,1 z"
     style="fill:#c6620c;fill-opacity:1;stroke:none" />
</svg>
