<?xml version="1.0" encoding="UTF-8" standalone="no"?>
<svg
   xmlns:dc="http://purl.org/dc/elements/1.1/"
   xmlns:cc="http://creativecommons.org/ns#"
   xmlns:rdf="http://www.w3.org/1999/02/22-rdf-syntax-ns#"
   xmlns:svg="http://www.w3.org/2000/svg"
   xmlns="http://www.w3.org/2000/svg"
   xmlns:sodipodi="http://sodipodi.sourceforge.net/DTD/sodipodi-0.dtd"
   xmlns:inkscape="http://www.inkscape.org/namespaces/inkscape"
   version="1.1"
   id="svg2"
   viewBox="0 0 48 48"
   height="48"
   width="48"
   inkscape:version="0.91 r13725"
   sodipodi:docname="ehomaki.svg">
  <sodipodi:namedview
     pagecolor="#ffffff"
     bordercolor="#666666"
     borderopacity="1"
     objecttolerance="10"
     gridtolerance="10"
     guidetolerance="10"
     inkscape:pageopacity="0"
     inkscape:pageshadow="2"
     inkscape:window-width="1366"
     inkscape:window-height="716"
     id="namedview3491"
     showgrid="false"
     inkscape:zoom="11.6875"
     inkscape:cx="22.502674"
     inkscape:cy="24"
     inkscape:window-x="0"
     inkscape:window-y="24"
     inkscape:window-maximized="1"
     inkscape:current-layer="svg2" />
  <metadata
     id="metadata7">
    <rdf:RDF>
      <cc:Work
         rdf:about="">
        <dc:format>image/svg+xml</dc:format>
        <dc:type
           rdf:resource="http://purl.org/dc/dcmitype/StillImage" />
        <dc:title />
      </cc:Work>
    </rdf:RDF>
  </metadata>
  <path
     style="fill:#ffffff;fill-opacity:1;stroke:none"
     d="m 35.621312,3.7859436 a 12.241978,6.1209891 60 0 0 -1.839086,0.430382 L 1.9757956,22.579293 A 12.241978,6.1209891 60 0 0 2.7967106,36.24193 12.241978,6.1209891 60 0 0 14.217774,43.783579 L 46.024204,25.420611 A 12.241978,6.1209891 60 0 0 45.20329,11.757974 12.241978,6.1209891 60 0 0 35.621312,3.7859436 Z"
     id="path4136-1-3"
     inkscape:connector-curvature="0" />
  <path
     style="fill:#000000;fill-opacity:1;stroke:none"
     d="M 35.392578 4.1855469 A 12 6 60 0 0 33.587891 4.6074219 L 2.4121094 22.607422 A 12 6 60 0 0 3.2148438 36 A 12 6 60 0 0 14.412109 43.392578 L 45.587891 25.392578 A 12 6 60 0 0 44.785156 12 A 12 6 60 0 0 35.392578 4.1855469 z "
     id="path4136-1" />
  <path
     style="fill:#ffffff;fill-opacity:1;stroke:none"
     d="M 11.875644,31 A 10,4 60 0 1 13.411542,41.660254 10,4 60 0 1 4.9474408,35 10,4 60 0 1 3.4115424,24.339746 10,4 60 0 1 11.875644,31 Z"
     id="path4155"
     inkscape:connector-curvature="0" />
  <path
     style="fill:#f77b71;fill-opacity:1;stroke:none"
     d="m 10.143593,32 a 5,2 60 0 1 0.767949,5.330127 L 8.4115424,33 Z"
     id="path4157"
     inkscape:connector-curvature="0" />
  <path
     style="fill:#7e9d36;fill-opacity:1;stroke:none"
     d="M 10.911542,37.330127 A 5,2 60 0 1 8.9545475,36.76894 5,2 60 0 1 6.6794916,34 l 1.7320508,-1 z"
     id="path4159"
     inkscape:connector-curvature="0" />
  <path
     style="fill:#f6b205;fill-opacity:1;stroke:none"
     d="M 6.6794916,34 A 5,2 60 0 1 5.9115424,28.669873 l 2.5,4.330127 z"
     id="path4161"
     inkscape:connector-curvature="0" />
  <path
     style="fill:#c6620c;fill-opacity:1;stroke:none"
     d="M 5.9115424,28.669873 A 5,2 60 0 1 10.143593,32 l -1.7320506,1 z"
     id="path4163"
     inkscape:connector-curvature="0" />
</svg>
